# xmcd
#
# Track frame offsets:
#	150
#	21155
#	34207
#	61872
#	79162
#
# Disc length: 1234 seconds
#
# Revision: 2
# Processed by: cddbd v1.4PL0 Copyright (c) Steve Scherf et al.
# Submitted via: audiograbber 1.82.02
#
DISCID=3604d005
DTITLE=Eric Clapton - Blues Sampler (Promo CD)
DYEAR=1999
DGENRE=Blues
TTITLE0=Before You Accuse Me (Take A Look At Yourself) Version 1
TTITLE1=Cryin'
TTITLE2=Wonderful Tonight (Live Version)
TTITLE3=Mean Old World
TTITLE4=Blow Wind Blow
EXTD=
EXTT0=
EXTT1=
EXTT2=
EXTT3=
EXTT4=
PLAYORDER=
